<svg xmlns="http://www.w3.org/2000/svg" viewBox="0 0 582.22 358.97"><defs><style>.cls-1{fill:#fff;}</style></defs><g id="Layer_2" data-name="Layer 2"><g id="Text_White" data-name="Text White"><g id="boxed"><path class="cls-1" d="M186.86,299.71a6.41,6.41,0,0,1-4.53-1.6,5.2,5.2,0,0,1-1.73-4,5.52,5.52,0,0,1,1.73-4.26,6.41,6.41,0,0,1,4.53-1.6h30.76a6.4,6.4,0,0,1,4.53,1.6,5.52,5.52,0,0,1,1.73,4.26,5.2,5.2,0,0,1-1.73,4,6.4,6.4,0,0,1-4.53,1.6Zm29.56,58.73a21.84,21.84,0,0,1-12-3.4,23.83,23.83,0,0,1-8.39-9.25A28.06,28.06,0,0,1,193,332.6V269.08a6.66,6.66,0,1,1,13.31,0V332.6a13.66,13.66,0,0,0,2.93,8.92,8.94,8.94,0,0,0,7.19,3.6H221A5.24,5.24,0,0,1,225,347a7,7,0,0,1,1.67,4.8,6,6,0,0,1-2.2,4.79,8.42,8.42,0,0,1-5.66,1.87Z"/><path class="cls-1" d="M276.35,359a37.68,37.68,0,0,1-19.05-4.73,34.25,34.25,0,0,1-13-13.05,41.23,41.23,0,0,1,0-38.35,34.25,34.25,0,0,1,13-13,40.42,40.42,0,0,1,37.95,0,34.21,34.21,0,0,1,13,13,41.47,41.47,0,0,1,.06,38.35,33.73,33.73,0,0,1-12.91,13.05A37.67,37.67,0,0,1,276.35,359Zm0-12a23.38,23.38,0,0,0,12.25-3.19,22.36,22.36,0,0,0,8.32-8.79,26.91,26.91,0,0,0,3-12.92,27.29,27.29,0,0,0-3-13,22.28,22.28,0,0,0-8.32-8.86,25.13,25.13,0,0,0-24.51,0,22.8,22.8,0,0,0-8.39,8.86,26.85,26.85,0,0,0-3.06,13A26.48,26.48,0,0,0,255.7,335a22.89,22.89,0,0,0,8.39,8.79A23.37,23.37,0,0,0,276.35,347Z"/><path class="cls-1" d="M340,358.57a6.62,6.62,0,0,1-6.8-6.79V292.39a6.54,6.54,0,0,1,1.94-4.93,6.76,6.76,0,0,1,11.65,4.93v59.39a6.74,6.74,0,0,1-1.87,4.86A6.51,6.51,0,0,1,340,358.57Zm54.73,0a6.62,6.62,0,0,1-6.8-6.79V319q0-7.59-2.79-12.38a17.69,17.69,0,0,0-7.53-7.13,24.28,24.28,0,0,0-10.85-2.33,22.43,22.43,0,0,0-10.12,2.26,18.88,18.88,0,0,0-7.19,6.06,14.78,14.78,0,0,0-2.66,8.73H338.4a28,28,0,0,1,4.06-15,29.37,29.37,0,0,1,11.12-10.45,32.5,32.5,0,0,1,15.84-3.86,34,34,0,0,1,16.45,3.93,28.3,28.3,0,0,1,11.45,11.52q4.2,7.59,4.2,18.64v32.76a6.6,6.6,0,0,1-6.79,6.79Z"/><path class="cls-1" d="M454.38,359a32.06,32.06,0,0,1-17.44-4.86,34.64,34.64,0,0,1-12.19-13.18,39.31,39.31,0,0,1-4.46-18.85,37.06,37.06,0,0,1,4.86-18.91,36,36,0,0,1,13.19-13.25,36.72,36.72,0,0,1,50.47,13.25,37.06,37.06,0,0,1,4.86,18.91h-5.2A39.31,39.31,0,0,1,484,340.93a34.62,34.62,0,0,1-12.18,13.18A32.09,32.09,0,0,1,454.38,359Zm2.67-12a22.67,22.67,0,0,0,12.11-3.26,23.17,23.17,0,0,0,8.39-8.92,26.3,26.3,0,0,0,3.07-12.72,26.62,26.62,0,0,0-3.07-12.85,23.24,23.24,0,0,0-8.39-8.92,24,24,0,0,0-24.17,0,23.64,23.64,0,0,0-8.52,8.92,26.2,26.2,0,0,0-3.13,12.85,25.89,25.89,0,0,0,3.13,12.72,23.57,23.57,0,0,0,8.52,8.92A22.82,22.82,0,0,0,457.05,347Zm29.82,11.59a6.6,6.6,0,0,1-6.79-6.79V331.4l2.53-14.11,11.06,4.79v29.7a6.6,6.6,0,0,1-6.8,6.79Z"/><path class="cls-1" d="M520.7,358.57a6.62,6.62,0,0,1-6.8-6.79V292.39a6.54,6.54,0,0,1,1.94-4.93,6.76,6.76,0,0,1,11.65,4.93v59.39a6.7,6.7,0,0,1-1.87,4.86A6.51,6.51,0,0,1,520.7,358.57Zm54.73,0a6.6,6.6,0,0,1-6.79-6.79V319q0-7.59-2.8-12.38a17.67,17.67,0,0,0-7.52-7.13,24.32,24.32,0,0,0-10.86-2.33,22.43,22.43,0,0,0-10.12,2.26,19,19,0,0,0-7.19,6.06,14.78,14.78,0,0,0-2.66,8.73H519.1a28,28,0,0,1,4.06-15,29.37,29.37,0,0,1,11.12-10.45,32.51,32.51,0,0,1,15.85-3.86,34,34,0,0,1,16.44,3.93A28.3,28.3,0,0,1,578,300.38q4.2,7.59,4.2,18.64v32.76a6.6,6.6,0,0,1-6.79,6.79Z"/><path class="cls-1" d="M72,308.85H29a23.71,23.71,0,0,1,2.21-6.46,20,20,0,0,1,8-8.27,24.88,24.88,0,0,1,12.61-3,20.64,20.64,0,0,1,11,2.77,18.75,18.75,0,0,1,7,7.55A22.74,22.74,0,0,1,72,308.85Z"/><path class="cls-1" d="M136.12,267.67H33.66A33.75,33.75,0,0,0,0,301.32v23.19a33.76,33.76,0,0,0,33.66,33.66H136.12a33.76,33.76,0,0,0,33.66-33.66V301.32A33.75,33.75,0,0,0,136.12,267.67ZM82.24,317A6.16,6.16,0,0,1,78,318.51H28.81a20.78,20.78,0,0,0,2.87,7.6,22.9,22.9,0,0,0,8.92,8.21,27.36,27.36,0,0,0,13.06,3A26,26,0,0,0,61.87,336a26.09,26.09,0,0,0,6.79-3.2,7.77,7.77,0,0,1,4.2-1.39,6,6,0,0,1,3.94,1.27,5.64,5.64,0,0,1,2.33,4,4.19,4.19,0,0,1-2.07,3.74,36.8,36.8,0,0,1-10.92,5.31,42.26,42.26,0,0,1-31.55-2.23,32.62,32.62,0,0,1-13.06-11.83,32,32,0,0,1-4.72-17.33,33.67,33.67,0,0,1,4.46-17.44A31.53,31.53,0,0,1,33.62,285a37.25,37.25,0,0,1,18.1-4.29q10.08,0,17.33,4.17a27.87,27.87,0,0,1,11,11.47,35.89,35.89,0,0,1,3.82,16.84A4.93,4.93,0,0,1,82.24,317Zm68.46,28.79a6,6,0,0,1-4.2,1.45,8.27,8.27,0,0,1-2.46-.36,4.86,4.86,0,0,1-2.2-1.57l-20.52-23-19.56,23a6.36,6.36,0,0,1-4.66,1.93A5.44,5.44,0,0,1,93,345.73a5,5,0,0,1-1.49-3.68,6.85,6.85,0,0,1,1.81-4.35l20-23.41-21.3-23.55a6.8,6.8,0,0,1-1.81-4.16,5,5,0,0,1,1.29-3.81,5.49,5.49,0,0,1,4.27-1.56,6.19,6.19,0,0,1,4.91,2.05l21.19,23.61,19-23.61a5.32,5.32,0,0,1,2.19-1.63,7.61,7.61,0,0,1,2.59-.42,5.35,5.35,0,0,1,4.27,1.63,5.5,5.5,0,0,1,1.36,3.92,7.31,7.31,0,0,1-1.88,4.47L130,315l20.51,22.91a6.25,6.25,0,0,1,1.87,4.29A4.77,4.77,0,0,1,150.7,345.79Z"/><path class="cls-1" d="M307.53,84.07c-3.8-4-11.68-7.09-21.55-8.49l15.36-52a8.1,8.1,0,1,0-9.68-2.87l-16,54c-.5,0-1,0-1.51,0H273l-40.61-37.9c0-.17,0-.33,0-.5a8.1,8.1,0,1,0-8.09,8.09,9.37,9.37,0,0,0,1.3-.11L259.54,76c-11.3,2.07-19.48,6.47-20.91,11.72C204.17,95.22,205.7,113.11,205.7,134c0,35.2-.64,49.74,32.14,55.21,4.25.69,9,1.25,14.5,1.68,11.64.92,26.17,1.26,44.34,1.26,15.17,0,27.62-.24,37.83-.95,5.46-.38,10.28-.9,14.52-1.6,30.43-5,32.05-18.92,32.05-55.6C381.08,88,368.23,84.34,307.53,84.07ZM261.29,186.81c-4.17,0-6.87-2.61-6.87-5.84s1.57-5.84,6.87-5.84,6.88,2.61,6.88,5.84S265.47,186.81,261.29,186.81Zm22.74,0c-4.19,0-6.89-2.61-6.89-5.84s1.57-5.84,6.89-5.84,6.87,2.61,6.87,5.84S288.2,186.81,284,186.81Zm0-17.24c-51.42,0-55.74-15.91-55.74-35.56S226.36,98.45,284,98.45s55.73,15.93,55.73,35.56S335.44,169.57,284,169.57Zm22.72,17.24c-4.18,0-6.9-2.61-6.9-5.84s1.59-5.84,6.9-5.84,6.88,2.61,6.88,5.84S310.93,186.81,306.75,186.81ZM322.58,181c0-3.23,1.59-5.84,6.89-5.84s6.88,2.61,6.88,5.84-2.7,5.84-6.88,5.84S322.58,184.2,322.58,181Zm39.26-65.6c8.47,0,11,4.17,11,9.32s-4.33,9.32-11,9.32-11-4.17-11-9.32S353.37,115.37,361.84,115.37Zm0,45.25c-6.66,0-11-4.17-11-9.32s2.51-9.32,11-9.32,11,4.17,11,9.32S368.51,160.62,361.84,160.62Z"/><path class="cls-1" d="M245.46,217.25a3.94,3.94,0,0,1-3.61,2.78l-9.14,0a2.13,2.13,0,0,1-2.15-2.8l7.05-27.09c.4-1.53.69-2.67.67-2.53a4.27,4.27,0,0,0,2.83.87h8.65c1.59,0,3.11-.4,3.37-.88S245.46,217.25,245.46,217.25Z"/><path class="cls-1" d="M341.32,217.25a3.93,3.93,0,0,0,3.61,2.78l9.13,0a2.13,2.13,0,0,0,2.15-2.8l-7-27.09c-.39-1.53-.69-2.67-.67-2.53a4.27,4.27,0,0,1-2.83.87H337c-1.59,0-3.1-.4-3.37-.88S341.32,217.25,341.32,217.25Z"/><path class="cls-1" d="M354.57,2.3a31.54,31.54,0,0,0-18.58,6h0a31.72,31.72,0,0,0-13.12,24.92c0,.26,0,.52,0,.78a31.75,31.75,0,0,0,31.72,31.71,31.42,31.42,0,0,0,11.55-2.18,31.82,31.82,0,0,0,18.94-20.78A31.25,31.25,0,0,0,386.3,34,31.75,31.75,0,0,0,354.57,2.3Zm.16,49.49h-.16a17.8,17.8,0,0,1-16.75-11.87h0a17.8,17.8,0,0,1,15-23.59,17.47,17.47,0,0,1,1.79-.08A17.82,17.82,0,0,1,371.82,29.7a18.08,18.08,0,0,1,.53,4.33A17.79,17.79,0,0,1,354.73,51.79Z"/><path class="cls-1" d="M385.06,42.78A125.77,125.77,0,0,0,371.82,29.7a18.08,18.08,0,0,1,.53,4.33,17.79,17.79,0,0,1-17.62,17.76,96.69,96.69,0,0,1,11.39,11.77c.62.76,1.25,1.54,1.84,2.32l25.63-12.17A122.26,122.26,0,0,0,385.06,42.78ZM295.1.08c-1.31,0-2.63-.08-4-.08a124,124,0,0,0-67.74,20.05l.91,0a16.38,16.38,0,0,1,16,13l6.25,5.84a95.51,95.51,0,0,1,34.26-10.35l2.06-7a16.56,16.56,0,0,1-.88-5.34A16.35,16.35,0,0,1,295.1.08Zm-70.61,54.5-2.14-2A16.34,16.34,0,0,1,208,36.36a16,16,0,0,1,.87-5.26,124.4,124.4,0,0,0-42.22,87q-.17,3.25-.17,6.56a123.38,123.38,0,0,0,3.07,27.48,21.57,21.57,0,0,0,9.6,3.47L197,147.15a96.82,96.82,0,0,1-2.63-22.46q0-4,.33-8A96.51,96.51,0,0,1,224.49,54.58Zm-43,92.31A12.88,12.88,0,1,1,194.35,134,12.9,12.9,0,0,1,181.48,146.89ZM352.78,16.33a125.49,125.49,0,0,0-16.79-8h0A124,124,0,0,0,303.51.62,16.35,16.35,0,0,1,308.34,29l-.12.41a95.41,95.41,0,0,1,14.64,3.84,94.06,94.06,0,0,1,14.94,6.67,17.8,17.8,0,0,1,15-23.59Zm62.78,100.18a124.09,124.09,0,0,0-6.31-31.8l-8.33,4a10.71,10.71,0,1,1-12.48,6l-4.61,2.19q1,3.19,1.7,6.47a75.52,75.52,0,0,1,3.38,18.58c.28,3.74.42,7.77.42,12.15,0,33.48-1.52,53.92-30.16,61.84l5,19.27a10.35,10.35,0,0,1-10.09,13.12l-9.17,0a12.1,12.1,0,0,1-11.58-9s-.75-2.8-1.78-6.7a95.55,95.55,0,0,1-28.39,8.13h0a99.5,99.5,0,0,1-12,.74c-1,0-2,0-2.94-.05a15.42,15.42,0,0,1-3.1,27.8c2,.1,4,.15,6,.15q6,0,11.82-.57A124.83,124.83,0,0,0,415.82,124.69Q415.82,120.57,415.56,116.51ZM264.78,234.63a15.45,15.45,0,0,1,10.16-14.5,94.07,94.07,0,0,1-14.5-3.64c-1.92-.65-3.83-1.36-5.7-2.12-.79,3-1.31,5-1.31,5a12.11,12.11,0,0,1-11.58,8.92l-4.59,0h-4.58a10.36,10.36,0,0,1-10.09-13.16l4.63-17.76q-1.64-1.42-3.2-2.95c-9-3-15-7.16-18.92-12.61L185.6,191a125.11,125.11,0,0,0,69.48,53.06h0A120.46,120.46,0,0,0,272.53,248,15.41,15.41,0,0,1,264.78,234.63Z"/><path class="cls-1" d="M197.45,131.47c0-3.92,0-7.92.26-11.92a21.17,21.17,0,0,0-3-2.81,21.74,21.74,0,1,0-15.56,38.9,20.36,20.36,0,0,0,2.36.13,21.7,21.7,0,0,0,16.08-7.13c-.09-4-.09-8.19-.09-12.63ZM168.59,134a12.88,12.88,0,1,1,12.89,12.88A12.89,12.89,0,0,1,168.59,134Z"/><path class="cls-1" d="M303.17,220.75h0a26.83,26.83,0,0,0-48.08,23.32h0a26.83,26.83,0,1,0,48.08-23.32Zm-18.11,28.49a15,15,0,0,1-4.86.8,15.2,15.2,0,0,1-7.66-2h0a15.41,15.41,0,0,1,2.41-27.86h0a15.41,15.41,0,1,1,10.14,29.11Z"/><path class="cls-1" d="M398.19,74.37A24.66,24.66,0,0,0,376,88.28a33.64,33.64,0,0,1,9.52,15,75.52,75.52,0,0,1,3.38,18.58,24.65,24.65,0,1,0,9.28-47.49Zm0,35.35A10.7,10.7,0,1,1,408.9,99,10.71,10.71,0,0,1,398.19,109.72Z"/></g></g></g></svg>