<svg xmlns="http://www.w3.org/2000/svg" xmlns:xlink="http://www.w3.org/1999/xlink" viewBox="0 0 672.07 177.52"><defs><style>.cls-1{fill:url(#linear-gradient);}.cls-2{fill:url(#linear-gradient-2);}.cls-3{fill:url(#linear-gradient-4);}.cls-4{fill:url(#linear-gradient-5);}.cls-5{fill:url(#linear-gradient-6);}.cls-6{fill:url(#radial-gradient);}</style><linearGradient id="linear-gradient" x1="644.87" y1="96.27" x2="6.2" y2="96.27" gradientUnits="userSpaceOnUse"><stop offset="0" stop-color="#2b3990"/><stop offset="1" stop-color="#00a79d"/></linearGradient><linearGradient id="linear-gradient-2" x1="644.87" y1="96.54" x2="6.2" y2="96.54" xlink:href="#linear-gradient"/><linearGradient id="linear-gradient-4" x1="644.87" y1="79.41" x2="6.2" y2="79.41" xlink:href="#linear-gradient"/><linearGradient id="linear-gradient-5" x1="644.87" y1="75.82" x2="6.2" y2="75.82" xlink:href="#linear-gradient"/><linearGradient id="linear-gradient-6" x1="644.87" y1="88.76" x2="6.2" y2="88.76" xlink:href="#linear-gradient"/><radialGradient id="radial-gradient" cx="644.87" cy="334.6" r="638.66" xlink:href="#linear-gradient"/></defs><g id="Layer_2" data-name="Layer 2"><g id="Text_Color" data-name="Text Color"><g id="inline"><path class="cls-1" d="M429.85,133.09a6.6,6.6,0,0,1-6.79-6.79V66.91A6.55,6.55,0,0,1,425,62a6.76,6.76,0,0,1,11.65,4.93V126.3a6.73,6.73,0,0,1-1.86,4.86A6.55,6.55,0,0,1,429.85,133.09Zm54.73,0a6.6,6.6,0,0,1-6.79-6.79V93.54q0-7.59-2.8-12.38A17.62,17.62,0,0,0,467.47,74a24.28,24.28,0,0,0-10.85-2.33A22.27,22.27,0,0,0,446.5,74a18.85,18.85,0,0,0-7.19,6,14.81,14.81,0,0,0-2.67,8.73h-8.39a27.93,27.93,0,0,1,4.07-15,29.25,29.25,0,0,1,11.12-10.46,32.47,32.47,0,0,1,15.84-3.86,34,34,0,0,1,16.45,3.93A28.36,28.36,0,0,1,487.18,74.9q4.2,7.59,4.19,18.64V126.3a6.6,6.6,0,0,1-6.79,6.79Z"/><path class="cls-2" d="M544.24,133.49a32.09,32.09,0,0,1-17.45-4.86,34.55,34.55,0,0,1-12.18-13.18,39.31,39.31,0,0,1-4.46-18.85A37.06,37.06,0,0,1,515,77.69a36,36,0,0,1,13.18-13.25,36.7,36.7,0,0,1,50.47,13.25,37.06,37.06,0,0,1,4.86,18.91h-5.19a39.31,39.31,0,0,1-4.46,18.85,34.57,34.57,0,0,1-12.19,13.18A32.06,32.06,0,0,1,544.24,133.49Zm2.66-12A22.69,22.69,0,0,0,559,118.24a23.1,23.1,0,0,0,8.39-8.92,26.29,26.29,0,0,0,3.06-12.72,26.61,26.61,0,0,0-3.06-12.85A23.24,23.24,0,0,0,559,74.83a24,24,0,0,0-24.17,0,23.57,23.57,0,0,0-8.52,8.92A26.1,26.1,0,0,0,523.2,96.6a25.78,25.78,0,0,0,3.13,12.72,23.42,23.42,0,0,0,8.52,8.92A22.79,22.79,0,0,0,546.9,121.51Zm29.83,11.58a6.6,6.6,0,0,1-6.79-6.79V105.93l2.53-14.12,11,4.79v29.7a6.6,6.6,0,0,1-6.79,6.79Z"/><path class="cls-1" d="M610.55,133.09a6.6,6.6,0,0,1-6.79-6.79V66.91A6.58,6.58,0,0,1,605.69,62a6.76,6.76,0,0,1,11.65,4.93V126.3a6.73,6.73,0,0,1-1.86,4.86A6.53,6.53,0,0,1,610.55,133.09Zm54.73,0a6.6,6.6,0,0,1-6.79-6.79V93.54q0-7.59-2.79-12.38A17.69,17.69,0,0,0,648.17,74a24.28,24.28,0,0,0-10.85-2.33A22.3,22.3,0,0,0,627.2,74,18.85,18.85,0,0,0,620,80a14.81,14.81,0,0,0-2.67,8.73H609a27.93,27.93,0,0,1,4.07-15,29.25,29.25,0,0,1,11.12-10.46A32.47,32.47,0,0,1,640,59.45a34,34,0,0,1,16.45,3.93A28.36,28.36,0,0,1,667.88,74.9q4.2,7.59,4.19,18.64V126.3a6.6,6.6,0,0,1-6.79,6.79Z"/><path class="cls-3" d="M183.07,67.34a7.22,7.22,0,0,1-5.1-1.8A5.87,5.87,0,0,1,176,61a6.22,6.22,0,0,1,1.95-4.8,7.22,7.22,0,0,1,5.1-1.8h34.65a7.22,7.22,0,0,1,5.1,1.8,6.22,6.22,0,0,1,2,4.8,5.87,5.87,0,0,1-2,4.5,7.22,7.22,0,0,1-5.1,1.8Zm33.3,66.15a24.58,24.58,0,0,1-13.5-3.83,26.83,26.83,0,0,1-9.45-10.42A31.57,31.57,0,0,1,190,104.39V32.84a7.5,7.5,0,1,1,15,0v71.55a15.39,15.39,0,0,0,3.3,10,10.08,10.08,0,0,0,8.1,4h5.1a5.9,5.9,0,0,1,4.57,2.1,7.81,7.81,0,0,1,1.88,5.4,6.76,6.76,0,0,1-2.48,5.4,9.5,9.5,0,0,1-6.37,2.1Z"/><path class="cls-4" d="M72,84.7H28.94a24.07,24.07,0,0,1,2.22-6.46,20,20,0,0,1,8-8.27,24.86,24.86,0,0,1,12.61-3,20.64,20.64,0,0,1,11,2.78,18.86,18.86,0,0,1,7,7.54A22.8,22.8,0,0,1,72,84.7Z"/><path class="cls-5" d="M136.12,43.51H33.66A33.76,33.76,0,0,0,0,77.17v23.19A33.76,33.76,0,0,0,33.66,134H136.12a33.76,33.76,0,0,0,33.66-33.66V77.17A33.76,33.76,0,0,0,136.12,43.51ZM82.23,92.85A6.16,6.16,0,0,1,78,94.36H28.8a20.8,20.8,0,0,0,2.88,7.6,22.83,22.83,0,0,0,8.92,8.21,27.45,27.45,0,0,0,13.06,3,26,26,0,0,0,8.21-1.39,26.42,26.42,0,0,0,6.79-3.2,7.69,7.69,0,0,1,4.2-1.39,5.87,5.87,0,0,1,3.94,1.27,5.62,5.62,0,0,1,2.33,4,4.22,4.22,0,0,1-2.07,3.75,36.74,36.74,0,0,1-10.93,5.31,41.5,41.5,0,0,1-12.47,2,41.08,41.08,0,0,1-19.07-4.29,32.54,32.54,0,0,1-13.06-11.83,31.93,31.93,0,0,1-4.72-17.32,33.55,33.55,0,0,1,4.46-17.44A31.46,31.46,0,0,1,33.62,60.86a37.25,37.25,0,0,1,18.1-4.29q10.08,0,17.32,4.17A27.8,27.8,0,0,1,80.1,72.2,35.91,35.91,0,0,1,83.91,89,4.91,4.91,0,0,1,82.23,92.85Zm68.47,28.79a6.1,6.1,0,0,1-4.21,1.45,7.9,7.9,0,0,1-2.45-.37,4.84,4.84,0,0,1-2.2-1.56l-20.51-23-19.57,23a6.41,6.41,0,0,1-4.66,1.93A5.48,5.48,0,0,1,93,121.58a5.07,5.07,0,0,1-1.49-3.68,6.8,6.8,0,0,1,1.81-4.35l20-23.41L92.06,66.59a6.82,6.82,0,0,1-1.81-4.16,5,5,0,0,1,1.29-3.81,5.5,5.5,0,0,1,4.27-1.57,6.21,6.21,0,0,1,4.91,2.06l21.2,23.6,19-23.6a5.34,5.34,0,0,1,2.2-1.63,7.37,7.37,0,0,1,2.59-.43A5.4,5.4,0,0,1,150,58.68a5.53,5.53,0,0,1,1.35,3.93,7.27,7.27,0,0,1-1.87,4.46L130,90.89l20.5,22.9a6.22,6.22,0,0,1,1.88,4.29A4.86,4.86,0,0,1,150.7,121.64Z"/><path class="cls-6" d="M278.69,30.18a6.54,6.54,0,0,0,.89-.07l23,21.52c-7.67,1.41-13.23,4.4-14.2,8C265,64.65,266.07,76.8,266.07,91c0,23.89-.44,33.77,21.82,37.48h0c-.05.19-.1.39-.15.61L283,147.48a1.44,1.44,0,0,0,1.45,1.9l6.21,0a2.68,2.68,0,0,0,2.45-1.89s3.32-12.62,4.67-17.89h0c7.91.62,17.77.86,30.11.86,10.3,0,18.76-.17,25.69-.65h0c1.38,5.38,4.62,17.68,4.62,17.68a2.67,2.67,0,0,0,2.45,1.89l6.2,0a1.44,1.44,0,0,0,1.46-1.9l-4.79-18.39c0-.12-.06-.23-.08-.34h0c20.66-3.39,21.76-12.85,21.76-37.75,0-31.24-8.72-33.73-49.94-33.91-2.58-2.7-7.94-4.82-14.63-5.77L331,16a5.5,5.5,0,1,0-6.57-2L313.59,50.77h-1.85L284.17,25c0-.12,0-.23,0-.34a5.5,5.5,0,1,0-5.5,5.49Zm93.4,48.16c5.75,0,7.46,2.83,7.46,6.33S376.62,91,372.09,91s-7.46-2.84-7.46-6.33S366.33,78.34,372.09,78.34Zm0,18.06c5.75,0,7.46,2.84,7.46,6.33s-2.93,6.33-7.46,6.33-7.46-2.83-7.46-6.33S366.33,96.4,372.09,96.4Zm-68.28,30.44c-2.83,0-4.67-1.77-4.67-4s1.07-4,4.67-4,4.68,1.78,4.68,4S306.65,126.84,303.81,126.84Zm15.44,0c-2.84,0-4.68-1.77-4.68-4s1.07-4,4.68-4,4.67,1.78,4.67,4S322.08,126.84,319.25,126.84Zm15.43,0c-2.84,0-4.68-1.77-4.68-4s1.07-4,4.68-4,4.67,1.78,4.67,4S337.51,126.84,334.68,126.84Zm10.75-4c0-2.19,1.07-4,4.67-4s4.68,1.78,4.68,4-1.84,4-4.68,4S345.43,125.07,345.43,122.88Zm-26.18-56c39.15,0,37.84,10.82,37.84,24.15s-2.93,24.14-37.84,24.14S281.4,104.33,281.4,91,280.1,66.85,319.25,66.85Z"/><path class="cls-6" d="M340,10.94a11,11,0,0,1-4.27,8.75l-.09.28a64.63,64.63,0,0,1,9.95,2.61c0,.17,0,.35,0,.52A21.53,21.53,0,0,0,375,43.16c.42.52.85,1,1.25,1.57l17.4-8.26A81.72,81.72,0,0,0,387.85,29a21.16,21.16,0,0,0,.84-5.94A21.52,21.52,0,0,0,354.53,5.66h0a83.69,83.69,0,0,0-22-5.24A11.12,11.12,0,0,1,340,10.94Zm27.12.09a12.1,12.1,0,0,1,11.71,9.14,12.31,12.31,0,0,1,.36,2.93,12.09,12.09,0,0,1-12,12.07h-.11a12.1,12.1,0,0,1-11.38-8.06h0A12.06,12.06,0,0,1,367.15,11Z"/><path class="cls-6" d="M289.55,22.39l4.24,4a65.11,65.11,0,0,1,23.26-7l1.4-4.76a11.31,11.31,0,0,1-.6-3.62A11.11,11.11,0,0,1,326.77.05c-.89,0-1.79,0-2.69,0a84.15,84.15,0,0,0-46,13.61h.62A11.13,11.13,0,0,1,289.55,22.39Z"/><path class="cls-6" d="M260.47,92.35V89.27c0-2.66,0-5.38.17-8.09a14.38,14.38,0,0,0-2.06-1.92,65.55,65.55,0,0,1,20.24-42.2l-1.45-1.36a11.1,11.1,0,0,1-9.77-11,10.89,10.89,0,0,1,.6-3.58,84.52,84.52,0,0,0-28.67,59.1,14.74,14.74,0,0,0,2,23.11,14.61,14.61,0,0,0,6.51,2.36,14.21,14.21,0,0,0,1.61.09,14.71,14.71,0,0,0,10.91-4.84C260.47,98.23,260.47,95.37,260.47,92.35ZM240.87,91a8.75,8.75,0,1,1,8.75,8.75A8.75,8.75,0,0,1,240.87,91Z"/><path class="cls-6" d="M413.51,67.23a16.74,16.74,0,0,0-31.8-7.29,23,23,0,0,1,6.46,10.19,51.25,51.25,0,0,1,2.3,12.61c.19,2.54.28,5.28.28,8.25,0,22.74-1,36.62-20.48,42l3.41,13.09a7,7,0,0,1-6.86,8.9l-6.23,0a8.23,8.23,0,0,1-7.86-6.08s-.51-1.9-1.2-4.55a65,65,0,0,1-19.28,5.52h0a18.19,18.19,0,0,0-29-2.89c-1.31-.44-2.6-.92-3.88-1.44l-.89,3.38a8.22,8.22,0,0,1-7.86,6.06l-3.11,0h-3.11a7.07,7.07,0,0,1-5.66-2.74,7.16,7.16,0,0,1-1.2-6.19L280.68,134c-.74-.65-1.47-1.31-2.17-2-6.13-2-10.18-4.86-12.85-8.57l-13.25,6.29a85.06,85.06,0,0,0,47.18,36h0A18.22,18.22,0,0,0,332.1,169a84.77,84.77,0,0,0,76.64-84.29q0-2.8-.18-5.55A16.69,16.69,0,0,0,413.51,67.23ZM320,169.23a10,10,0,0,1-3.3.54,10.3,10.3,0,0,1-5.2-1.38h0a10.47,10.47,0,0,1,1.64-18.92h0A10.46,10.46,0,1,1,320,169.23S320,169.24,320,169.23Zm69.55-102a7.13,7.13,0,0,1,.65-3A7.24,7.24,0,0,1,396.77,60a7,7,0,0,1,1.85.24,7.27,7.27,0,1,1-9.12,7Z"/></g></g></g></svg>