<svg xmlns="http://www.w3.org/2000/svg" viewBox="0 0 672.07 177.52"><defs><style>.cls-1{fill:#fff;}</style></defs><g id="Layer_2" data-name="Layer 2"><g id="Text_White" data-name="Text White"><g id="inline"><path class="cls-1" d="M429.85,133.18a6.6,6.6,0,0,1-6.79-6.79V67A6.51,6.51,0,0,1,425,62.07a7.34,7.34,0,0,1,9.79,0A6.66,6.66,0,0,1,436.64,67v59.39a6.73,6.73,0,0,1-1.86,4.86A6.58,6.58,0,0,1,429.85,133.18Zm54.73,0a6.6,6.6,0,0,1-6.79-6.79V93.63q0-7.59-2.8-12.39a17.59,17.59,0,0,0-7.52-7.12,24.28,24.28,0,0,0-10.85-2.33,22.27,22.27,0,0,0-10.12,2.26,18.88,18.88,0,0,0-7.19,6.06,14.78,14.78,0,0,0-2.67,8.72h-8.39a28,28,0,0,1,4.07-15A29.3,29.3,0,0,1,443.44,63.4a32.47,32.47,0,0,1,15.84-3.86,34,34,0,0,1,16.45,3.93A28.33,28.33,0,0,1,487.18,75q4.2,7.6,4.19,18.65v32.76a6.6,6.6,0,0,1-6.79,6.79Z" transform="translate(0 -0.09)"/><path class="cls-1" d="M544.24,133.58a32.09,32.09,0,0,1-17.45-4.86,34.58,34.58,0,0,1-12.18-13.19,39.27,39.27,0,0,1-4.46-18.84A37,37,0,0,1,515,77.78a36,36,0,0,1,13.18-13.25,36.7,36.7,0,0,1,50.47,13.25,37,37,0,0,1,4.86,18.91h-5.19a39.27,39.27,0,0,1-4.46,18.84,34.6,34.6,0,0,1-12.19,13.19A32.06,32.06,0,0,1,544.24,133.58Zm2.66-12A22.68,22.68,0,0,0,559,118.33a23.17,23.17,0,0,0,8.39-8.92,26.29,26.29,0,0,0,3.06-12.72,26.58,26.58,0,0,0-3.06-12.85A23.17,23.17,0,0,0,559,74.92a24,24,0,0,0-24.17,0,23.5,23.5,0,0,0-8.52,8.92,26.07,26.07,0,0,0-3.13,12.85,25.78,25.78,0,0,0,3.13,12.72,23.5,23.5,0,0,0,8.52,8.92A22.78,22.78,0,0,0,546.9,121.59Zm29.83,11.59a6.6,6.6,0,0,1-6.79-6.79V106l2.53-14.11,11,4.79v29.7a6.6,6.6,0,0,1-6.79,6.79Z" transform="translate(0 -0.09)"/><path class="cls-1" d="M610.55,133.18a6.6,6.6,0,0,1-6.79-6.79V67a6.55,6.55,0,0,1,1.93-4.93,7.34,7.34,0,0,1,9.79,0A6.66,6.66,0,0,1,617.34,67v59.39a6.73,6.73,0,0,1-1.86,4.86A6.57,6.57,0,0,1,610.55,133.18Zm54.73,0a6.6,6.6,0,0,1-6.79-6.79V93.63q0-7.59-2.79-12.39a17.67,17.67,0,0,0-7.53-7.12,24.28,24.28,0,0,0-10.85-2.33,22.3,22.3,0,0,0-10.12,2.26A18.88,18.88,0,0,0,620,80.11a14.78,14.78,0,0,0-2.67,8.72H609a28,28,0,0,1,4.07-15A29.3,29.3,0,0,1,624.14,63.4,32.47,32.47,0,0,1,640,59.54a34,34,0,0,1,16.45,3.93A28.33,28.33,0,0,1,667.88,75q4.2,7.6,4.19,18.65v32.76a6.6,6.6,0,0,1-6.79,6.79Z" transform="translate(0 -0.09)"/><path class="cls-1" d="M183.07,67.43a7.18,7.18,0,0,1-5.1-1.81,5.84,5.84,0,0,1-1.95-4.5A6.21,6.21,0,0,1,178,56.33a7.18,7.18,0,0,1,5.1-1.8h34.65a7.18,7.18,0,0,1,5.1,1.8,6.21,6.21,0,0,1,2,4.79,5.84,5.84,0,0,1-2,4.5,7.18,7.18,0,0,1-5.1,1.81Zm33.3,66.15a24.58,24.58,0,0,1-13.5-3.83,26.83,26.83,0,0,1-9.45-10.42A31.57,31.57,0,0,1,190,104.48V32.93a7.5,7.5,0,1,1,15,0v71.55a15.39,15.39,0,0,0,3.3,10,10.08,10.08,0,0,0,8.1,4h5.1a5.9,5.9,0,0,1,4.57,2.1,7.81,7.81,0,0,1,1.88,5.4,6.76,6.76,0,0,1-2.48,5.4,9.5,9.5,0,0,1-6.37,2.1Z" transform="translate(0 -0.09)"/><path class="cls-1" d="M72,84.79H28.94a24.07,24.07,0,0,1,2.22-6.46,20,20,0,0,1,8-8.27,24.86,24.86,0,0,1,12.61-3,20.64,20.64,0,0,1,11,2.78,18.86,18.86,0,0,1,7,7.54A22.8,22.8,0,0,1,72,84.79Z" transform="translate(0 -0.09)"/><path class="cls-1" d="M136.12,43.6H33.66A33.76,33.76,0,0,0,0,77.26v23.19a33.76,33.76,0,0,0,33.66,33.66H136.12a33.76,33.76,0,0,0,33.66-33.66V77.26A33.76,33.76,0,0,0,136.12,43.6ZM82.23,92.94A6.16,6.16,0,0,1,78,94.45H28.8a20.8,20.8,0,0,0,2.88,7.6,22.83,22.83,0,0,0,8.92,8.21,27.45,27.45,0,0,0,13.06,3,26,26,0,0,0,8.21-1.39,26.42,26.42,0,0,0,6.79-3.2,7.69,7.69,0,0,1,4.2-1.39,5.87,5.87,0,0,1,3.94,1.27,5.62,5.62,0,0,1,2.33,4,4.22,4.22,0,0,1-2.07,3.75,36.74,36.74,0,0,1-10.93,5.31,41.5,41.5,0,0,1-12.47,2,41.08,41.08,0,0,1-19.07-4.29,32.54,32.54,0,0,1-13.06-11.83,31.93,31.93,0,0,1-4.72-17.32,33.55,33.55,0,0,1,4.46-17.44A31.46,31.46,0,0,1,33.62,61a37.25,37.25,0,0,1,18.1-4.29q10.08,0,17.32,4.17A27.8,27.8,0,0,1,80.1,72.29a35.91,35.91,0,0,1,3.81,16.84A4.91,4.91,0,0,1,82.23,92.94Zm68.47,28.79a6.1,6.1,0,0,1-4.21,1.45,7.9,7.9,0,0,1-2.45-.37,4.84,4.84,0,0,1-2.2-1.56l-20.51-23-19.57,23a6.41,6.41,0,0,1-4.66,1.93A5.48,5.48,0,0,1,93,121.67,5.07,5.07,0,0,1,91.54,118a6.8,6.8,0,0,1,1.81-4.35l20-23.41L92.06,66.68a6.82,6.82,0,0,1-1.81-4.16,5,5,0,0,1,1.29-3.81,5.5,5.5,0,0,1,4.27-1.57,6.21,6.21,0,0,1,4.91,2.06l21.2,23.6,19-23.6a5.34,5.34,0,0,1,2.2-1.63,7.37,7.37,0,0,1,2.59-.43A5.4,5.4,0,0,1,150,58.77a5.53,5.53,0,0,1,1.35,3.93,7.27,7.27,0,0,1-1.87,4.46L130,91l20.5,22.9a6.22,6.22,0,0,1,1.88,4.29A4.86,4.86,0,0,1,150.7,121.73Z" transform="translate(0 -0.09)"/><path class="cls-1" d="M335.21,57.17c-2.58-2.69-7.94-4.81-14.63-5.77L331,16.12a5.5,5.5,0,1,0-6.57-2L313.59,50.86l-1,0h-.83L284.17,25.11c0-.11,0-.22,0-.33a5.5,5.5,0,1,0-5.5,5.49,5.26,5.26,0,0,0,.89-.08l23,21.53c-7.67,1.41-13.23,4.39-14.2,8-23.39,5.06-22.35,17.21-22.35,31.4,0,23.9-.44,33.78,21.82,37.49,2.88.47,6.15.85,9.84,1.14,7.91.62,17.77.85,30.11.85,10.3,0,18.76-.16,25.69-.64,3.7-.26,7-.61,9.86-1.09,20.66-3.38,21.76-12.84,21.76-37.75C385.15,59.85,376.43,57.35,335.21,57.17Zm-31.4,69.76c-2.83,0-4.67-1.77-4.67-4s1.07-4,4.67-4,4.68,1.77,4.68,4S306.65,126.93,303.81,126.93Zm15.44,0c-2.84,0-4.68-1.77-4.68-4s1.07-4,4.68-4,4.67,1.77,4.67,4S322.08,126.93,319.25,126.93Zm0-11.7c-34.91,0-37.85-10.81-37.85-24.15s-1.3-24.14,37.85-24.14,37.84,10.81,37.84,24.14S354.16,115.23,319.25,115.23Zm15.43,11.7c-2.84,0-4.68-1.77-4.68-4s1.07-4,4.68-4,4.67,1.77,4.67,4S337.51,126.93,334.68,126.93Zm10.75-4c0-2.2,1.07-4,4.67-4s4.68,1.77,4.68,4-1.84,4-4.68,4S345.43,125.16,345.43,123Zm26.66-44.55c5.75,0,7.46,2.84,7.46,6.33s-2.93,6.33-7.46,6.33-7.46-2.83-7.46-6.33S366.33,78.42,372.09,78.42Zm0,30.73c-4.52,0-7.46-2.83-7.46-6.33s1.7-6.33,7.46-6.33,7.46,2.83,7.46,6.33S376.62,109.15,372.09,109.15Z" transform="translate(0 -0.09)"/><path class="cls-1" d="M293.06,147.6a2.68,2.68,0,0,1-2.45,1.89l-6.21,0a1.44,1.44,0,0,1-1.45-1.9l4.79-18.4c.26-1,.46-1.81.45-1.72a2.88,2.88,0,0,0,1.92.59H296c1.08,0,2.11-.26,2.29-.59S293.06,147.6,293.06,147.6Z" transform="translate(0 -0.09)"/><path class="cls-1" d="M358.15,147.6a2.67,2.67,0,0,0,2.45,1.89l6.2,0a1.44,1.44,0,0,0,1.46-1.9l-4.79-18.4c-.26-1-.47-1.81-.45-1.72a2.88,2.88,0,0,1-1.92.59h-5.88c-1.07,0-2.1-.26-2.28-.59S358.15,147.6,358.15,147.6Z" transform="translate(0 -0.09)"/><path class="cls-1" d="M367.15,1.65a21.45,21.45,0,0,0-12.62,4.09h0a21.54,21.54,0,0,0-8.9,16.93c0,.17,0,.35,0,.52a21.54,21.54,0,0,0,42.24,5.94,21.16,21.16,0,0,0,.84-5.94A21.56,21.56,0,0,0,367.15,1.65Zm.11,33.6h-.11a12.09,12.09,0,0,1-11.38-8.06h0a12.07,12.07,0,1,1,23.1-6.94,12.33,12.33,0,0,1,.36,2.94A12.09,12.09,0,0,1,367.26,35.25Z" transform="translate(0 -0.09)"/><path class="cls-1" d="M387.85,29.13a84.69,84.69,0,0,0-9-8.88,12.33,12.33,0,0,1,.36,2.94,12.09,12.09,0,0,1-12,12.06,65.66,65.66,0,0,1,7.73,8c.42.51.85,1,1.25,1.57l17.4-8.26A81.72,81.72,0,0,0,387.85,29.13ZM326.77.14c-.89,0-1.79-.05-2.69-.05a84.15,84.15,0,0,0-46,13.61l.62,0a11.13,11.13,0,0,1,10.85,8.8l4.24,4a64.91,64.91,0,0,1,23.26-7l1.4-4.76a11.37,11.37,0,0,1-.6-3.63A11.11,11.11,0,0,1,326.77.14Zm-47.95,37-1.45-1.36a11.11,11.11,0,0,1-9.77-11,10.89,10.89,0,0,1,.6-3.58,84.52,84.52,0,0,0-28.67,59.1c-.07,1.47-.12,3-.12,4.45a83.84,83.84,0,0,0,2.09,18.66,14.61,14.61,0,0,0,6.51,2.36L260.15,100a65.56,65.56,0,0,1-1.79-15.25c0-1.82.07-3.62.22-5.4A65.53,65.53,0,0,1,278.82,37.15Zm-29.2,62.68a8.75,8.75,0,1,1,8.74-8.75A8.76,8.76,0,0,1,249.62,99.83ZM365.93,11.18a84,84,0,0,0-11.4-5.44h0a84.07,84.07,0,0,0-22-5.23,11.1,11.1,0,0,1,3.28,19.27l-.09.28a65.77,65.77,0,0,1,20.09,7.13,12.08,12.08,0,0,1,10.17-16Zm42.63,68a84.31,84.31,0,0,0-4.28-21.59l-5.66,2.69a7.27,7.27,0,1,1-9.12,7,7.17,7.17,0,0,1,.65-3L387,65.82c.44,1.45.83,2.91,1.16,4.4a51.25,51.25,0,0,1,2.3,12.61c.19,2.54.28,5.28.28,8.25,0,22.73-1,36.61-20.48,42l3.41,13.09a7,7,0,0,1-6.86,8.9l-6.23,0a8.23,8.23,0,0,1-7.86-6.08s-.51-1.91-1.2-4.55A65.27,65.27,0,0,1,332.25,150h0a66.71,66.71,0,0,1-8.16.5c-.68,0-1.34,0-2,0A10.47,10.47,0,0,1,320,169.32c1.37.07,2.72.1,4.11.1,2.7,0,5.38-.13,8-.38a84.77,84.77,0,0,0,76.64-84.29Q408.74,81.95,408.56,79.2ZM306.18,159.4a10.48,10.48,0,0,1,6.9-9.84,64.39,64.39,0,0,1-9.84-2.47c-1.31-.44-2.6-.93-3.88-1.44l-.89,3.37a8.22,8.22,0,0,1-7.86,6.07l-3.11,0h-3.11a7,7,0,0,1-6.86-8.93l3.15-12.06c-.74-.65-1.47-1.31-2.17-2-6.13-2-10.18-4.87-12.85-8.57l-13.25,6.29a85.06,85.06,0,0,0,47.18,36h0a84.67,84.67,0,0,0,11.84,2.66A10.49,10.49,0,0,1,306.18,159.4Z" transform="translate(0 -0.09)"/><path class="cls-1" d="M260.47,89.36c0-2.66,0-5.38.17-8.1a14.9,14.9,0,0,0-2.06-1.91A14.76,14.76,0,1,0,248,105.77a14.21,14.21,0,0,0,1.61.09A14.71,14.71,0,0,0,260.53,101c-.06-2.71-.06-5.57-.06-8.58Zm-19.6,1.72a8.75,8.75,0,1,1,8.75,8.75A8.75,8.75,0,0,1,240.87,91.08Z" transform="translate(0 -0.09)"/><path class="cls-1" d="M332.25,150h0a18.22,18.22,0,0,0-33.81,9.42,18.46,18.46,0,0,0,1.16,6.42h0A18.22,18.22,0,1,0,332.25,150ZM320,169.32a10.24,10.24,0,0,1-3.3.54,10.41,10.41,0,0,1-5.2-1.38h0a10.47,10.47,0,0,1,1.64-18.92h0a10.25,10.25,0,0,1,3.56-.63A10.46,10.46,0,0,1,320,169.32S320,169.33,320,169.32Z" transform="translate(0 -0.09)"/><path class="cls-1" d="M396.77,50.58A16.74,16.74,0,0,0,381.71,60a22.9,22.9,0,0,1,6.46,10.19,51.25,51.25,0,0,1,2.3,12.61,16.74,16.74,0,1,0,6.3-32.25Zm0,24a7.28,7.28,0,0,1-7.27-7.27,7.17,7.17,0,0,1,.65-3,7.25,7.25,0,0,1,6.62-4.28,7,7,0,0,1,1.85.25,7.26,7.26,0,0,1-1.85,14.29Z" transform="translate(0 -0.09)"/></g></g></g></svg>