<svg xmlns="http://www.w3.org/2000/svg" xmlns:xlink="http://www.w3.org/1999/xlink" viewBox="0 0 206.26 206.14"><defs><style>.cls-1{fill:url(#radial-gradient);}</style><radialGradient id="radial-gradient" cx="153.82" cy="136.71" r="186.82" gradientUnits="userSpaceOnUse"><stop offset="0" stop-color="#2b3990"/><stop offset="1" stop-color="#00a79d"/></radialGradient></defs><g id="Layer_2" data-name="Layer 2"><g id="Color"><path class="cls-1" d="M51.08,35,77.84,60c-8.91,1.63-15.36,5.1-16.49,9.24-39.28,3.6-25.9,63.75-20.22,71.41,3.77,4.07,10.91,6.76,19.79,8.49-1.63,9.08-14.27,33.23,5.81,22.2.12-.43,3.71-14.06,5.35-20.48l.06-.1c22,2.28,49.27.72,64.62-.26l.22.36c1.64,6.42,5.23,20,5.34,20.48,19.73,10.84,7.87-12.3,5.91-21.72,21.8-3.2,25.5-13.38,25.43-38.85.75-41.38-8.09-44.07-58-44.44-3-3.13-9.21-5.59-17-6.7l12.11-41c14.26-10.55-13.65-19.41-7.63-2.26L90.58,59c-.37,0-.42,0-2.15,0l-32-29.89C52.7,11.56,33.35,33.09,51.08,35Zm107.43,91.69c-9,.23-12.54-12.37-2.58-14.5C169.81,109.19,170.94,126.16,158.51,126.67Zm0-35.68c11.21-.37,11.77,14.08,0,14.7C148.77,105.91,145.42,91.28,158.51,91ZM79.22,147.32c-5.37.24-8.63-8.77,0-9.21C85.83,138,86.92,146.47,79.22,147.32Zm17.93,0c-5.38.24-8.65-8.77,0-9.21C103.75,138,104.83,146.47,97.15,147.32Zm17.92,0c-5.39.24-8.66-8.77,0-9.21C121.67,138,122.75,146.47,115.07,147.32Zm12.48-4.6c-.83-5.4,11-6.5,10.86,0C138.62,147.67,128.39,149.39,127.55,142.72ZM97.15,77.65c45.46,0,43.95,12.56,43.95,28s-3.41,28-43.95,28-43.95-12.55-43.95-28S51.68,77.65,97.15,77.65Z"/><path class="cls-1" d="M116.32,22.89l-.1.32a77.63,77.63,0,0,1,11.63,3.09c-.24,14.84,13,28.91,31.13,24.78,1-.28,2-.6,2.9-.94.49.6,1,1.21,1.45,1.83l20.21-9.6A96.61,96.61,0,0,0,177,34c3.76-14.48-6.22-32.15-24.24-32.15a24.86,24.86,0,0,0-14.65,4.76h0l0,0A100.22,100.22,0,0,0,112.51.51C121.06,3.16,124.78,16.21,116.32,22.89Zm50.16.94c1,4-.39,8.62-3.29,12a27,27,0,0,1-10.29,5c-5.08.15-11.36-3.74-13.34-9.36h0c-.19-5.42.54-9.46,1.87-12.38a13.13,13.13,0,0,1,9.94-6.22l-.26-.15C157.34,12.91,164.2,17.9,166.48,23.83Z"/><path class="cls-1" d="M62.65,26l4.93,4.6a75.46,75.46,0,0,1,27-8.16l1.63-5.53C93.7,11.08,98.31,1.29,105.88.08,86.71-.78,64.79,5.48,49.33,15.83A13.48,13.48,0,0,1,62.65,26Z"/><path class="cls-1" d="M28.88,103.69c0-3.09,0-6.25.2-9.4-.8-.55-1.59-1-2.36-1.5C28.34,74.09,36.77,55,50.2,43.06l-1.69-1.58C41.44,40.44,35,33,37.86,24.54,18.73,41,6.3,66.29,4.6,92.63-6.18,104.2,2,135.62,29,117.23,28.89,114.35,28.9,108.36,28.88,103.69Zm-18.71-6a10.56,10.56,0,0,1,14.05,1.82c3,4.23,2.45,10.73-1.84,14.11a10.56,10.56,0,0,1-14.09-1.91A10.54,10.54,0,0,1,10.17,97.74Z"/><path class="cls-1" d="M187.17,58.66a19.44,19.44,0,0,0-17.49,11,27.1,27.1,0,0,1,7.37,11.62c5.87,25.79,7.89,68-20.65,73.2,15.51,35.81-21.85,29.73-21.77,13.23a79.28,79.28,0,0,1-22.4,6.4c-8.93-13.61-25-12.25-33.55-3.32-1.43-.48-3-1-4.63-1.7-2.87,18.11-35.82,16.67-21.7-13.45-4.59-4-14.67-6.88-17.44-12.27l-15.38,7.3a99.13,99.13,0,0,0,54.78,41.8v0h0c8.8,19.18,29.59,16,37.66,3.74,51.78-4.89,92.42-50.38,88.87-104.32C210.71,81.48,207.62,59.75,187.17,58.66ZM98,196.55a12.82,12.82,0,0,1-9.87-1l-.1-.06a12.29,12.29,0,0,1-3.73-3.41c-3.23-4.9-2.61-12.5,2.27-16.55a12.35,12.35,0,0,1,3.45-2h0c8.56-3.11,15.22,3.56,16,10.69a12.56,12.56,0,0,1-3.74,9.79A13.64,13.64,0,0,1,98,196.55ZM187.18,69.66a7.15,7.15,0,0,1,2.2.25l-.06,0a17.21,17.21,0,0,1,4.58,3.6,9.54,9.54,0,0,1,.46,8.65,10.83,10.83,0,0,1-9.85,3.88A8.44,8.44,0,0,1,179.23,80a16.63,16.63,0,0,1,.14-4.66C180.27,72.47,182.75,70.1,187.18,69.66Z"/></g></g></svg>