<svg xmlns="http://www.w3.org/2000/svg" viewBox="0 0 207.49 206.16"><defs><style>.cls-1{fill:#fff;}</style></defs><g id="Layer_2" data-name="Layer 2"><g id="White"><path class="cls-1" d="M116.56,66.29c-3-3.13-9.21-5.59-17-6.7l12.11-41a6.38,6.38,0,1,0-7.63-2.26L91.46,59l-1.19,0h-1l-32-29.89c0-.13,0-.26,0-.39a6.38,6.38,0,1,0-6.38,6.38A7,7,0,0,0,52,35L78.72,60c-8.91,1.63-15.36,5.1-16.49,9.24-27.17,5.88-26,20-26,36.47,0,27.75-.51,39.22,25.34,43.53,3.35.55,7.14,1,11.43,1.33,9.18.72,20.64,1,35,1,12,0,21.78-.19,29.83-.75,4.3-.3,8.1-.71,11.45-1.26,24-3.93,25.27-14.92,25.27-43.84C174.56,69.4,164.43,66.5,116.56,66.29Zm-36.46,81c-3.29,0-5.42-2.06-5.42-4.6s1.24-4.61,5.42-4.61,5.43,2.06,5.43,4.61S83.4,147.3,80.1,147.3Zm17.93,0c-3.3,0-5.43-2.06-5.43-4.6s1.24-4.61,5.43-4.61,5.42,2.06,5.42,4.61S101.32,147.3,98,147.3Zm0-13.59c-40.54,0-43.95-12.55-43.95-28s-1.52-28,44-28S142,90.19,142,105.67,138.57,133.71,98,133.71ZM116,147.3c-3.3,0-5.44-2.06-5.44-4.6s1.25-4.61,5.44-4.61,5.42,2.06,5.42,4.61S119.24,147.3,116,147.3Zm12.48-4.6c0-2.55,1.25-4.61,5.43-4.61s5.43,2.06,5.43,4.61-2.13,4.6-5.43,4.6S128.43,145.24,128.43,142.7Zm31-51.73c6.68,0,8.67,3.29,8.67,7.35s-3.41,7.35-8.67,7.35-8.66-3.29-8.66-7.35S152.71,91,159.39,91Zm0,35.68c-5.25,0-8.66-3.29-8.66-7.35s2-7.35,8.66-7.35,8.67,3.29,8.67,7.35S164.65,126.65,159.39,126.65Z"/><path class="cls-1" d="M67.61,171.3a3.11,3.11,0,0,1-2.85,2.2l-7.2,0a1.67,1.67,0,0,1-1.69-2.2l5.56-21.36c.31-1.21.54-2.11.52-2a3.4,3.4,0,0,0,2.24.69H71c1.25,0,2.44-.32,2.65-.7S67.61,171.3,67.61,171.3Z"/><path class="cls-1" d="M143.2,171.3a3.1,3.1,0,0,0,2.85,2.2l7.2,0a1.67,1.67,0,0,0,1.69-2.2l-5.56-21.36c-.31-1.21-.54-2.11-.52-2a3.4,3.4,0,0,1-2.24.69H139.8c-1.25,0-2.44-.32-2.66-.7S143.2,171.3,143.2,171.3Z"/><path class="cls-1" d="M153.65,1.81A24.86,24.86,0,0,0,139,6.57h0a25,25,0,0,0-10.34,19.65c0,.2,0,.41,0,.61a25,25,0,0,0,49.05,6.9,24.59,24.59,0,0,0,1-6.9A25,25,0,0,0,153.65,1.81Zm.13,39h-.13a14,14,0,0,1-13.21-9.36h0a14,14,0,0,1,11.81-18.6,13.05,13.05,0,0,1,1.41-.07,14,14,0,0,1,.13,28Z"/><path class="cls-1" d="M177.69,33.73a98.67,98.67,0,0,0-10.44-10.31,14,14,0,0,1-13.47,17.42,76.46,76.46,0,0,1,9,9.28c.49.6,1,1.21,1.45,1.83l20.21-9.6A96.78,96.78,0,0,0,177.69,33.73ZM106.76.06c-1,0-2.08-.06-3.13-.06A97.73,97.73,0,0,0,50.21,15.81l.72,0A12.92,12.92,0,0,1,63.53,26l4.93,4.6a75.46,75.46,0,0,1,27-8.16l1.63-5.53A12.91,12.91,0,0,1,106.76.06ZM51.08,43l-1.69-1.58A12.89,12.89,0,0,1,38.05,28.67a12.68,12.68,0,0,1,.69-4.15A98.09,98.09,0,0,0,5.45,93.15c-.09,1.71-.14,3.44-.14,5.17A97.45,97.45,0,0,0,7.73,120a17,17,0,0,0,7.57,2.74L29.39,116a76.1,76.1,0,0,1-2.08-17.71q0-3.16.26-6.27A76.08,76.08,0,0,1,51.08,43ZM17.16,115.83a10.16,10.16,0,1,1,10.15-10.16A10.17,10.17,0,0,1,17.16,115.83ZM152.24,12.88A98,98,0,0,0,139,6.57h0A97.39,97.39,0,0,0,113.39.49a12.89,12.89,0,0,1,3.81,22.38l-.1.32a75.37,75.37,0,0,1,11.55,3,74.57,74.57,0,0,1,11.78,5.26,14,14,0,0,1,11.81-18.6Zm49.5,79a97.74,97.74,0,0,0-5-25.07l-6.57,3.12a8.45,8.45,0,1,1-9.84,4.69l-3.64,1.73q.76,2.52,1.34,5.1a59.71,59.71,0,0,1,2.67,14.65c.22,3,.33,6.13.33,9.58,0,26.4-1.2,42.52-23.78,48.76l3.95,15.2a8.16,8.16,0,0,1-8,10.34L146,180a9.55,9.55,0,0,1-9.13-7.06s-.59-2.21-1.4-5.28a75.7,75.7,0,0,1-22.39,6.41h0a78.09,78.09,0,0,1-9.48.58c-.78,0-1.55,0-2.32,0a12.16,12.16,0,0,1-2.45,21.92c1.59.08,3.16.12,4.77.12q4.71,0,9.32-.45a98.43,98.43,0,0,0,89-97.88Q202,95.07,201.74,91.87ZM82.85,185a12.18,12.18,0,0,1,8-11.43,74.09,74.09,0,0,1-11.43-2.87q-2.28-.77-4.5-1.67c-.62,2.34-1,3.92-1,3.92a9.56,9.56,0,0,1-9.13,7l-3.62,0H57.54a8.17,8.17,0,0,1-8-10.37l3.65-14c-.86-.75-1.7-1.52-2.52-2.32-7.12-2.33-11.82-5.65-14.92-10l-15.38,7.3A98.69,98.69,0,0,0,75.2,192.46h0A96.52,96.52,0,0,0,89,195.55,12.16,12.16,0,0,1,82.85,185Z"/><path class="cls-1" d="M29.76,103.67c0-3.09,0-6.25.2-9.4a16.73,16.73,0,0,0-2.39-2.22A17.14,17.14,0,1,0,15.3,122.73a16.31,16.31,0,0,0,1.86.1,17.1,17.1,0,0,0,12.68-5.62c-.07-3.14-.07-6.46-.07-10ZM7,105.67a10.16,10.16,0,1,1,10.16,10.16A10.17,10.17,0,0,1,7,105.67Z"/><path class="cls-1" d="M113.12,174.07h0A21.16,21.16,0,0,0,75.2,192.46h0a21.16,21.16,0,1,0,37.91-18.39ZM98.84,196.53a11.83,11.83,0,0,1-3.83.63,12,12,0,0,1-6-1.61h0a12.15,12.15,0,0,1,1.9-22s0,0,0,0a12.14,12.14,0,0,1,10.44,1,12.16,12.16,0,0,1-2.45,21.92Z"/><path class="cls-1" d="M188.05,58.64a19.44,19.44,0,0,0-17.49,11,26.53,26.53,0,0,1,7.5,11.83,59.71,59.71,0,0,1,2.67,14.65,19.44,19.44,0,1,0,7.32-37.45Zm0,27.88a8.44,8.44,0,1,1,8.44-8.44A8.45,8.45,0,0,1,188.05,86.52Z"/></g></g></svg>