<?xml version="1.0" encoding="UTF-8" standalone="no"?>
<!-- Created with Inkscape (http://www.inkscape.org/) -->

<svg
    width="320"
    height="120"
    viewBox="0 0 320 120"
    version="1.1"
    id="svg1"
    xmlns="http://www.w3.org/2000/svg"
>
  <defs
     id="defs1" />
  <g
     id="layer1"
     style="display:inline"
     transform="translate(193.95628,-2.6857564)">
    <g
       id="g1"
       style="display:inline"
       transform="matrix(0.4542155,0,0,0.4542155,-151.83733,-189.30412)">
      <path
         id="path100"
         d="m 530.33177,506.67 3.2341,7.01613 c 0.20647,0.44869 0.63331,0.75641 1.12567,0.81597 l 7.66931,0.90928 c 1.20509,0.14294 1.6915,1.63392 0.7981,2.45783 l -5.67008,5.24523 c -0.36332,0.33552 -0.52611,0.83582 -0.43082,1.32222 l 1.50686,7.57402 c 0.23626,1.19119 -1.03237,2.11437 -2.09054,1.52075 l -6.74018,-3.77608 c -0.4328,-0.24023 -0.95891,-0.24023 -1.38973,0 l -6.74017,3.77608 c -1.06017,0.59362 -2.3268,-0.32956 -2.09055,-1.52075 l 1.50487,-7.57402 c 0.0973,-0.4864 -0.0655,-0.9867 -0.42883,-1.32222 l -5.67207,-5.24523 c -0.89141,-0.82391 -0.40699,-2.31489 0.80009,-2.45783 l 7.66931,-0.90928 c 0.49236,-0.0596 0.91722,-0.36728 1.12568,-0.81597 l 3.23409,-7.01613 c 0.50824,-1.10186 2.07665,-1.10186 2.58489,0"
         style="fill:#f9a816;fill-opacity:1;fill-rule:nonzero;stroke:none;stroke-width:0.198532" />
      <path
         id="path101"
         d="m 537.16724,533.71607 h -0.002 0.002 v 0 m -16.25782,0 c 0,0 -0.002,0 -0.004,0 0.002,0 0.004,0 0.004,0 v 0 m 0.004,0 c 0.22832,0 0.46457,-0.0576 0.6909,-0.18464 l 6.74017,-3.77608 c 0.21442,-0.11912 0.45464,-0.17868 0.69487,-0.17868 0.24022,0 0.47846,0.0596 0.69486,0.17868 l 6.74018,3.77608 v 0 0 l -6.74018,-3.77608 c -0.2164,-0.11912 -0.45464,-0.17868 -0.69486,-0.17868 -0.24023,0 -0.48045,0.0596 -0.69487,0.17868 l -6.74017,3.77608 c -0.22633,0.12707 -0.46258,0.18464 -0.6909,0.18464 m 16.25981,0 c 0.82589,-0.004 1.55649,-0.75244 1.39767,-1.66767 0.15882,0.91523 -0.56979,1.6637 -1.39767,1.66767 m -0.66508,-0.16677 c -0.004,-0.002 -0.006,-0.002 -0.008,-0.004 0.002,0.002 0.004,0.002 0.008,0.004 m -17.00232,-1.5009 c 0.002,-0.01 0.004,-0.0179 0.006,-0.0258 -0.002,0.008 -0.004,0.0159 -0.006,0.0258 m 0.008,-0.0377 0.28787,-1.44929 v 0 l -0.28787,1.44929"
         style="fill:#09292d;fill-opacity:1;fill-rule:nonzero;stroke:none;stroke-width:0.198532" />
      <path
         id="path102-5"
         d="m 520.90942,533.71607 c 0,0 -0.002,0 -0.004,0 -0.82788,-0.004 -1.55848,-0.75244 -1.39965,-1.66767 0.002,-0.01 0.004,-0.0179 0.006,-0.0258 0,-0.004 0,-0.008 0.002,-0.0119 v 0 l 0.28787,-1.44929 6.46422,-3.62123 c 0.2164,-0.11912 0.45662,-0.17868 0.69486,-0.17868 0.24023,0 0.48045,0.0596 0.69486,0.17868 l 6.74018,3.77608 c 0.22633,0.12707 0.46457,0.18464 0.69486,0.18464 0.8398,0 1.58231,-0.77031 1.39569,-1.70539 l -1.50488,-7.57402 c -0.0973,-0.4864 0.0655,-0.9867 0.42883,-1.32421 l 5.47354,-5.06059 1.47708,0.17471 c 0.77825,0.0913 1.25473,0.7445 1.25671,1.41752 0.002,0.37126 -0.14096,0.74847 -0.45861,1.04031 l -5.67008,5.24523 c -0.29582,0.27199 -0.45861,0.65317 -0.45663,1.04825 0,0.0913 0.008,0.18265 0.0258,0.27397 l 1.50686,7.57402 c 0.002,0.0119 0.004,0.0258 0.006,0.0377 0.15882,0.91523 -0.57178,1.6637 -1.39767,1.66767 -0.002,0 -0.004,0 -0.006,0 h -0.002 c -0.21839,0 -0.44273,-0.0536 -0.65714,-0.16677 -0.004,-0.002 -0.006,-0.002 -0.008,-0.004 -0.01,-0.004 -0.0179,-0.01 -0.0258,-0.0139 v 0 l -6.74018,-3.77608 c -0.2164,-0.11912 -0.45464,-0.17868 -0.69486,-0.17868 -0.24023,0 -0.48045,0.0596 -0.69487,0.17868 l -6.74017,3.77608 c -0.22633,0.12707 -0.46258,0.18464 -0.6909,0.18464 0,0 -0.002,0 -0.004,0"
         style="fill:#f7981b;fill-opacity:1;fill-rule:nonzero;stroke:none;stroke-width:0.198532" />
      <path
         id="path103-6"
         d="m 517.11547,518.42907 c -0.42288,0 -0.79215,-0.31169 -0.85369,-0.74251 -0.0655,-0.47251 0.26206,-0.90928 0.73457,-0.97678 l 8.37013,-1.18921 2.87475,-6.93275 c 0.13698,-0.33155 0.4586,-0.53207 0.7981,-0.53207 0.10919,0 0.22235,0.0199 0.32956,0.0655 0.44074,0.18265 0.6492,0.68692 0.46655,1.12766 l -3.06335,7.38739 c -0.11714,0.28391 -0.37325,0.48244 -0.677,0.52413 l -8.85653,1.2587 c -0.0417,0.006 -0.0814,0.01 -0.12309,0.01"
         style="fill:#fccc0e;fill-opacity:1;fill-rule:nonzero;stroke:none;stroke-width:0.198532" />
      <path
         id="path104"
         d="m 531.57061,540.4225 4.67346,10.13508 c 0.29978,0.6492 0.91523,1.09788 1.62598,1.18127 l 11.08208,1.31428 c 1.74311,0.20449 2.44195,2.35857 1.15347,3.55175 l -8.19343,7.57599 c -0.52611,0.48442 -0.76038,1.20907 -0.62141,1.90989 l 2.17592,10.94727 c 0.34346,1.72088 -1.489,3.05323 -3.02167,2.19537 l -9.73801,-5.45348 c -0.62339,-0.34942 -1.38377,-0.34942 -2.00915,0 l -9.73802,5.45348 c -1.53068,0.85786 -3.36314,-0.47449 -3.02166,-2.19537 l 2.17592,-10.94727 c 0.13897,-0.70082 -0.0953,-1.42547 -0.62141,-1.90989 l -8.19344,-7.57599 c -1.28847,-1.19318 -0.58964,-3.34726 1.15348,-3.55175 l 11.08208,-1.31428 c 0.71075,-0.0834 1.3262,-0.53207 1.62598,-1.18127 l 4.67544,-10.13508 c 0.73457,-1.59223 2.99784,-1.59223 3.73439,0"
         style="fill:#f68514;fill-opacity:1;fill-rule:nonzero;stroke:none;stroke-width:0.198532" />
      <path
         id="path105"
         d="m 541.44959,579.50182 c -0.002,0 -0.004,0 -0.006,0 0.002,0 0.004,0 0.006,0 v 0 m -23.49433,0 c -0.002,0 -0.004,0 -0.006,0 0.002,0 0.004,0 0.006,0 v 0 m 0.004,0 c 0.31567,-0.002 0.63927,-0.076 0.95097,-0.24042 -0.3117,0.16438 -0.6353,0.23804 -0.95097,0.24042 m 23.49631,0 c 1.2051,-0.004 2.26724,-1.10205 2.01511,-2.43977 0.25213,1.33772 -0.81001,2.4358 -2.01511,2.43977 m -0.96089,-0.24042 c -0.004,-0.002 -0.008,-0.006 -0.0139,-0.008 0.006,0.002 0.01,0.005 0.0139,0.008 m -21.57651,-0.006 c 0.0139,-0.006 0.0278,-0.0141 0.0417,-0.0218 l 9.73802,-5.45348 c 0.3117,-0.17471 0.65913,-0.26207 1.00457,-0.26207 0.34545,0 0.69288,0.0874 1.00458,0.26207 l 9.73801,5.45348 v 0 0 l -9.73801,-5.45348 c -0.3117,-0.17471 -0.65913,-0.26207 -1.00458,-0.26207 -0.34544,0 -0.69287,0.0874 -1.00457,0.26207 l -9.73802,5.45348 c -0.0139,0.008 -0.0278,0.0163 -0.0417,0.0218 m -2.98394,-2.19319 c 0,-0.009 0.002,-0.0163 0.004,-0.024 -0.002,0.008 -0.004,0.0155 -0.004,0.024 m 25.35656,-10.97129 c -0.13897,-0.70082 0.0953,-1.42547 0.62141,-1.90989 l 8.19343,-7.57599 c 0.13103,-0.12111 0.24221,-0.25214 0.33354,-0.39111 -0.0913,0.13897 -0.20251,0.27 -0.33354,0.39111 l -8.19343,7.57599 c -0.52611,0.48442 -0.76038,1.20907 -0.62141,1.90989 M 550.7687,555.1 c -0.004,-0.97281 -0.69288,-1.91584 -1.81657,-2.04687 l -2.13422,-0.25412 h 0.002 l 2.13224,0.25213 c 1.12369,0.13302 1.8126,1.07605 1.81657,2.04886"
         style="fill:#0b272e;fill-opacity:1;fill-rule:nonzero;stroke:none;stroke-width:0.198532" />
      <path
         id="path106-9"
         d="m 517.95526,579.50182 c -0.002,0 -0.004,0 -0.006,0 -1.20509,-0.004 -2.26724,-1.10205 -2.0151,-2.43977 0,-0.009 0.002,-0.0163 0.004,-0.024 v 0 l 0.41692,-2.09471 9.34095,-5.23133 c 0.3117,-0.17273 0.65714,-0.26008 1.00457,-0.26008 0.34545,0 0.69288,0.0874 1.00458,0.26008 l 9.73801,5.4517 c 0.32957,0.18463 0.67303,0.26802 1.00458,0.26802 1.21502,0 2.28511,-1.1098 2.01709,-2.46181 l -2.17592,-10.94707 c -0.13897,-0.70082 0.0953,-1.42348 0.62141,-1.91187 l 7.90755,-7.31195 2.13422,0.25412 c 1.12369,0.13103 1.8126,1.07406 1.81657,2.04687 0.002,0.38317 -0.10324,0.77031 -0.32956,1.11377 -0.0913,0.13897 -0.20251,0.27 -0.33354,0.39111 l -8.19343,7.57599 c -0.52611,0.48442 -0.76038,1.20907 -0.62141,1.90989 v 0 l 2.17592,10.94727 c 0.002,0.008 0.004,0.0155 0.004,0.024 0.25213,1.33772 -0.81001,2.4358 -2.01511,2.43977 -0.002,0 -0.004,0 -0.006,0 -0.002,0 -0.004,0 -0.006,0 -0.31368,-0.002 -0.63729,-0.076 -0.94898,-0.24042 -0.004,-0.002 -0.008,-0.006 -0.0139,-0.008 -0.0119,-0.006 -0.0238,-0.0125 -0.0357,-0.0203 v 0 l -9.73801,-5.45348 c -0.3117,-0.17471 -0.65913,-0.26207 -1.00458,-0.26207 -0.34544,0 -0.69287,0.0874 -1.00457,0.26207 l -9.73802,5.45348 c -0.0139,0.008 -0.0278,0.0163 -0.0417,0.0218 -0.002,0.002 -0.006,0.004 -0.008,0.006 -0.3117,0.16438 -0.6353,0.23804 -0.95097,0.24042 0,0 -0.002,0 -0.004,0"
         style="fill:#f47315;fill-opacity:1;fill-rule:nonzero;stroke:none;stroke-width:0.198532" />
      <path
         id="path107"
         d="m 512.47378,557.41092 c -0.61148,0 -1.14553,-0.44869 -1.23289,-1.07009 -0.0973,-0.68295 0.37721,-1.31429 1.05818,-1.41157 l 12.0946,-1.7173 4.15727,-10.02192 c 0.19853,-0.47847 0.66309,-0.76832 1.15148,-0.76832 0.15883,0 0.32163,0.0298 0.47847,0.0953 0.6353,0.26405 0.93707,0.99267 0.67302,1.62995 l -4.42926,10.67708 c -0.16875,0.40699 -0.53802,0.69486 -0.97678,0.75641 l -12.7974,1.81855 c -0.0596,0.008 -0.11713,0.0119 -0.17669,0.0119"
         style="fill:#f9aa0d;fill-opacity:1;fill-rule:nonzero;stroke:none;stroke-width:0.198532" />
      <path
         id="path114"
         d="m 487.69892,517.73619 5.58074,12.10056 c 0.35935,0.77427 1.09392,1.31031 1.94165,1.40958 l 13.23219,1.56642 c 2.0826,0.24816 2.91842,2.81916 1.3798,4.24264 l -9.78567,9.04712 c -0.62736,0.57971 -0.90729,1.44333 -0.74052,2.28114 l 2.59879,13.07137 c 0.40699,2.05481 -1.78084,3.64506 -3.60932,2.62262 l -11.62805,-6.51187 c -0.74449,-0.41692 -1.65377,-0.41692 -2.39827,0 l -11.62804,6.51187 c -1.82849,1.02244 -4.01632,-0.56781 -3.60734,-2.62262 l 2.59879,-13.07137 c 0.16478,-0.83781 -0.11515,-1.70143 -0.74251,-2.28114 l -9.78566,-9.04712 c -1.53863,-1.42348 -0.70281,-3.99448 1.3798,-4.24264 l 13.23218,-1.56642 c 0.84774,-0.0993 1.58429,-0.63531 1.94165,-1.40958 l 5.58075,-12.10056 c 0.87751,-1.90392 3.58152,-1.90392 4.45904,0"
         style="fill:#f9dc26;fill-opacity:1;fill-rule:nonzero;stroke:none;stroke-width:0.198532" />
      <path
         id="path115"
         d="m 499.49571,564.39529 v 0 c 1.44929,0 2.72982,-1.3262 2.41019,-2.94027 0.31963,1.61407 -0.9609,2.94027 -2.41019,2.94027 m -28.05263,0 c -0.002,0 -0.006,0 -0.008,0 0.002,0 0.006,0 0.008,0 v 0 m 0.004,0 c 0.37721,0 0.76435,-0.0893 1.13958,-0.28787 -0.37523,0.19853 -0.76237,0.28787 -1.13958,0.28787 m 1.13958,-0.28787 c 0.01,-0.006 0.0198,-0.0119 0.0318,-0.0179 -0.0119,0.006 -0.0218,0.0119 -0.0318,0.0179 m -3.57359,-2.53328 c 0.006,-0.0377 0.0139,-0.0794 0.0218,-0.11912 -0.008,0.0397 -0.0159,0.0814 -0.0218,0.11912 m 0.0218,-0.11912 0.49633,-2.50151 -0.49633,2.50151 m 30.26826,-13.09123 c -0.15883,-0.82986 0.12309,-1.68752 0.74449,-2.26128 l 9.78567,-9.04712 c 0.54596,-0.50626 0.79413,-1.15546 0.79016,-1.79672 0.004,0.64126 -0.2442,1.29046 -0.79016,1.79672 l -9.78368,9.04712 c -0.62339,0.57376 -0.90531,1.43142 -0.74648,2.26128"
         style="fill:#082a29;fill-opacity:1;fill-rule:nonzero;stroke:none;stroke-width:0.198532" />
      <path
         id="path116"
         d="m 471.44308,564.39529 c -0.002,0 -0.006,0 -0.008,0 -1.40958,-0.004 -2.65835,-1.26465 -2.4221,-2.82115 0.006,-0.0377 0.0139,-0.0794 0.0218,-0.11912 v 0 l 0.49633,-2.50151 11.15355,-6.24384 c 0.37325,-0.21045 0.78619,-0.31368 1.19914,-0.31368 0.41493,0 0.82788,0.10323 1.20112,0.31368 l 11.62805,6.50988 c 0.39111,0.22037 0.80207,0.31963 1.19715,0.31963 1.45127,0 2.72982,-1.32818 2.41018,-2.94225 l -2.59879,-13.06939 c -0.16677,-0.8378 0.11316,-1.70142 0.74053,-2.28113 l 9.44617,-8.73345 2.54519,0.29979 c 1.34208,0.16081 2.16599,1.28649 2.16996,2.44592 0.004,0.64126 -0.2442,1.29046 -0.79016,1.79672 l -9.78567,9.04712 c -0.6214,0.57376 -0.90332,1.43142 -0.74449,2.26128 0.002,0.008 0.002,0.0139 0.004,0.0199 l 2.59879,13.07137 v 0 c 0.31963,1.61407 -0.9609,2.94027 -2.41019,2.94027 -0.39706,0 -0.80604,-0.0993 -1.19913,-0.31765 v 0 l -11.62805,-6.51187 c -0.37125,-0.20846 -0.78619,-0.31169 -1.19913,-0.31169 -0.41295,0 -0.8259,0.10323 -1.19914,0.31169 l -11.62804,6.51187 v 0 c -0.008,0.004 -0.0159,0.008 -0.0238,0.0119 -0.0119,0.006 -0.0218,0.0119 -0.0318,0.0179 v 0 c -0.37523,0.19853 -0.76237,0.28787 -1.13958,0.28787 -0.002,0 -0.002,0 -0.004,0"
         style="fill:#faca14;fill-opacity:1;fill-rule:nonzero;stroke:none;stroke-width:0.198532" />
      <path
         id="path117"
         d="m 464.89945,538.02025 c -0.7306,0 -1.36789,-0.53802 -1.47311,-1.28053 -0.11515,-0.81398 0.45067,-1.56841 1.26465,-1.68356 l 14.44125,-2.05084 4.96331,-11.96356 c 0.23626,-0.57376 0.79016,-0.91921 1.37583,-0.91921 0.18861,0 0.38317,0.0357 0.56979,0.11317 0.75839,0.31566 1.11972,1.18722 0.80406,1.94562 l -5.28692,12.74975 c -0.20251,0.4864 -0.64523,0.82986 -1.16737,0.90332 l -15.28105,2.16996 c -0.0715,0.01 -0.14095,0.0159 -0.21044,0.0159"
         style="fill:#f9ef40;fill-opacity:1;fill-rule:nonzero;stroke:none;stroke-width:0.198532" />
      <g
         id="g2"
         style="display:inline">
        <path
           id="path108"
           d="m 507.68121,608.95748 c -36.20637,0 -65.5574,-29.35103 -65.5574,-65.557 0,-36.20834 29.35103,-65.55938 65.5574,-65.55938 18.63624,0 35.44201,7.78843 47.37976,20.27215 -16.03149,-29.24979 -47.09983,-49.08516 -82.80589,-49.08516 -52.12072,0 -94.3724,42.25167 -94.3724,94.37239 0,52.11655 42.25168,94.36823 94.3724,94.36823 35.70606,0 66.7744,-19.83538 82.80589,-49.08476 -11.93775,12.48352 -28.74352,20.27353 -47.37976,20.27353"
           style="fill:#b9c0c2;fill-opacity:1;fill-rule:nonzero;stroke:none;stroke-width:0.198532" />
        <path
           id="path109-3"
           d="m 394.81551,526.74957 c -0.0814,0 -0.16279,-0.006 -0.24618,-0.0199 -0.73457,-0.12309 -1.25075,-0.76236 -1.24082,-1.48303 0.17867,-12.85696 4.62382,-25.23149 11.69554,-35.95224 3.42866,-5.46759 7.95123,-10.12119 12.61872,-14.54846 l 3.74433,-3.04152 c 1.26465,-0.99067 2.47172,-2.07665 3.85748,-2.88864 l 4.04808,-2.60872 2.029,-1.29642 2.13025,-1.10582 c 11.17936,-6.17833 23.9172,-9.96435 36.76027,-10.30384 0.72266,-0.0179 1.4473,-0.0278 2.16996,-0.0278 5.68795,0 11.35605,0.58567 16.8693,1.81061 6.21804,1.42944 12.21967,3.40881 17.83417,6.65283 0.71074,0.41096 0.95494,1.32024 0.54398,2.03297 -0.27596,0.47648 -0.77626,0.7445 -1.28848,0.7445 -0.16081,0 -0.32162,-0.0258 -0.47846,-0.0794 l -0.12905,-0.0457 c -8.83668,-3.00975 -18.25108,-4.4511 -27.53843,-4.4511 -2.5432,0 -5.07449,0.1092 -7.58394,0.32163 -11.75709,0.93707 -23.07543,4.61587 -33.47853,10.16287 l -1.97738,0.99266 -1.86819,1.16936 -3.73241,2.34467 c -1.28649,0.72861 -2.37842,1.70936 -3.5716,2.56504 l -3.51204,2.64842 -3.246,2.96012 -1.62797,1.47906 c -0.51221,0.52413 -0.99068,1.07605 -1.48899,1.61407 l -3.0038,3.21821 -2.71394,3.46638 c -7.04393,9.33897 -12.1343,20.57987 -14.08587,32.26549 l -0.0278,0.16478 c -0.1211,0.72465 -0.74847,1.23885 -1.4612,1.23885"
           style="fill:#e7eff4;fill-opacity:1;fill-rule:nonzero;stroke:none;stroke-width:0.198532" />
        <path
           id="path111"
           d="m 453.47589,580.28344 c -0.60155,-0.39468 -30.70304,-20.47028 -14.77875,-69.21595 8.69572,-26.61526 35.38046,-42.27351 62.30146,-42.27351 20.49649,0 41.13195,9.08087 54.06237,29.31927 -11.93775,-12.48372 -28.74352,-20.27215 -47.37976,-20.27215 -36.20637,0 -65.5574,29.35104 -65.5574,65.55938 v 0 0 c 0,0.0298 0,0.0635 0,0.0953 0,0.01 0,0.0159 0,0.0278 0,0.0238 0,0.0477 0,0.0715 0,0.01 0,0.0159 0,0.0278 0,0.0278 0,0.0536 0,0.0814 0,0.006 0,0.01 0,0.0179 0,0.0298 0,0.0615 0,0.0913 0,0.01 0.002,0.0218 0.002,0.0298 0,0.0218 0,0.0437 0,0.0655 0,0.01 0,0.0238 0,0.0357 0,0.0218 0,0.0437 0,0.0655 0,0.0139 0,0.0258 0,0.0397 0.002,0.0258 0.002,0.0516 0.002,0.0794 0,0.0119 0,0.0258 0,0.0377 0,0.0199 0,0.0377 0,0.0576 0,0.0119 0.002,0.0278 0.002,0.0397 0,0.0179 0,0.0377 0,0.0536 0,0.0278 0,0.0536 0.002,0.0794 0,0.0159 0,0.0298 0,0.0457 0,0.0179 0,0.0397 0,0.0576 0,0.01 0.002,0.0199 0.002,0.0298 0,0.0199 0,0.0437 0,0.0635 0,0.006 0,0.0139 0,0.0199 0.002,0.0734 0.004,0.15088 0.006,0.22434 0,0 0,0 0,0.002 0.28192,13.12697 4.42529,25.30495 11.3362,35.4436"
           style="fill:#616c6e;fill-opacity:1;fill-rule:nonzero;stroke:none;stroke-width:0.198532" />
        <path
           id="path113"
           d="m 472.25508,637.76871 c -52.12072,0 -94.3724,-42.25168 -94.3724,-94.36823 v 0 c 0,-0.0496 0,-0.0993 0,-0.14691 0,-0.0159 0.002,-0.0298 0.002,-0.0457 0,-0.0318 0,-0.0655 0,-0.0973 0,-0.0199 0,-0.0377 0,-0.0576 0,-0.0298 0,-0.0576 0,-0.0874 0,-0.0218 0,-0.0417 0,-0.0635 0,-0.0278 0,-0.0516 0,-0.0794 0,-0.0238 0,-0.0457 0.002,-0.0675 0,-0.0218 0,-0.0536 0,-0.0754 0,-0.0238 0,-0.0476 0,-0.0715 0,-0.0238 0,-0.0457 0,-0.0675 0,-0.0258 0.002,-0.0536 0.002,-0.0794 0,-0.0179 0,-0.0357 0,-0.0556 0,-0.0298 0,-0.0596 0.002,-0.0913 v 0 c 0,-0.13302 0.002,-0.26603 0.004,-0.39905 0,-0.002 0,-0.004 0,-0.008 0.002,-0.0437 0.002,-0.0854 0.002,-0.12905 0,-0.002 0,-0.004 0,-0.006 0.002,-0.0437 0.002,-0.0854 0.004,-0.12905 0,-0.004 0,-0.004 0,-0.008 0.41295,-22.47784 8.69771,-43.02595 22.19593,-59.03164 -7.85593,13.77021 -12.36659,29.6945 -12.36659,46.68094 0,52.11853 42.25167,94.37021 94.37041,94.37021 28.94802,0 54.84657,-13.03723 72.15463,-33.55973 -15.86671,27.80467 -45.44407,46.76829 -79.53607,47.64163 -0.002,0 -0.004,0 -0.006,0 -0.0318,0 -0.0635,0.002 -0.0973,0.002 -0.002,0 -0.002,0 -0.006,0 -0.0298,10e-4 -0.0635,10e-4 -0.0933,10e-4 -0.004,0 -0.008,0 -0.0119,0 -0.0298,0.002 -0.0596,0.002 -0.0893,0.004 -0.004,0 -0.01,0 -0.0159,0 -0.0298,0 -0.0556,0 -0.0854,0.002 -0.008,0 -0.0119,0 -0.0179,0 -0.0278,0 -0.0576,0 -0.0854,0.002 -0.008,0 -0.01,0 -0.0179,0 -0.0278,0 -0.0556,0 -0.0834,0.002 -0.008,0 -0.0159,0 -0.0218,0 -0.0278,0 -0.0536,0 -0.0814,0.002 -0.006,0 -0.0159,0 -0.0218,0 -0.0258,0 -0.0536,0 -0.0794,0.002 -0.01,0 -0.0179,0 -0.0278,0 -0.0258,0 -0.0496,0 -0.0754,0 -0.01,0.002 -0.0179,0.002 -0.0258,0.002 -0.0258,0 -0.0516,0 -0.0774,0 -0.008,0 -0.0199,0 -0.0278,0 -0.0258,0.002 -0.0476,0.002 -0.0735,0.002 -0.0119,0 -0.0218,0 -0.0318,0 -0.0238,0 -0.0476,0.002 -0.0715,0.002 -0.0139,0 -0.0238,0 -0.0377,0 -0.0199,0 -0.0417,0 -0.0635,0 -0.0139,0 -0.0298,0.002 -0.0437,0.002 -0.0199,0 -0.0397,0 -0.0596,0 -0.0139,0 -0.0298,0 -0.0417,0 -0.0199,0 -0.0437,0 -0.0616,0 -0.0159,0.002 -0.0278,0.002 -0.0437,0.002 -0.0199,0 -0.0417,0 -0.0596,0 -0.0159,0 -0.0298,0 -0.0457,0 -0.0198,0 -0.0397,0 -0.0576,0 -0.0159,0 -0.0318,0 -0.0457,0.002 -0.0199,0 -0.0397,0 -0.0576,0 -0.0179,0 -0.0357,0 -0.0536,0 -0.0159,0 -0.0337,0 -0.0496,0 -0.0179,0 -0.0377,0 -0.0556,0 -0.0139,0 -0.0337,0 -0.0477,0 -0.0179,0 -0.0417,0 -0.0596,0 -0.0139,0 -0.0298,0 -0.0457,0 -0.0179,0.002 -0.0357,0.002 -0.0556,0.002 -0.0159,0 -0.0298,0 -0.0477,0 -0.0218,0 -0.0417,0 -0.0635,0 -0.0139,0 -0.0278,0 -0.0397,0 -0.0357,0 -0.0695,0 -0.10323,0"
           style="display:inline;fill:#616c6e;fill-opacity:1;fill-rule:nonzero;stroke:none;stroke-width:0.198532" />
      </g>
    </g>
  </g>
</svg>
